<?xml version="1.0" standalone="no"?>
<!DOCTYPE svg PUBLIC "-//W3C//DTD SVG 20010904//EN"
 "http://www.w3.org/TR/2001/REC-SVG-20010904/DTD/svg10.dtd">
<svg version="1.0" xmlns="http://www.w3.org/2000/svg"
 width="275.000000pt" height="183.000000pt" viewBox="0 0 275.000000 183.000000"
 preserveAspectRatio="xMidYMid meet">
<metadata>
Created by potrace 1.10, written by Peter Selinger 2001-2011
</metadata>
<g transform="translate(0.000000,183.000000) scale(0.100000,-0.100000)"
fill="#000000" stroke="none">
<path d="M1010 1280 c0 -59 -1 -60 -27 -60 -16 0 -42 -9 -59 -19 -45 -27 -64
-76 -64 -163 1 -72 1 -72 15 -41 16 38 59 63 77 45 8 -8 4 -19 -15 -42 -81
-95 -75 -321 9 -406 36 -36 62 -40 30 -5 -28 31 -56 118 -56 174 0 117 57 220
151 272 46 25 65 30 124 30 79 -1 129 -21 184 -77 98 -100 119 -274 45 -384
-13 -19 -24 -37 -24 -40 0 -4 73 -4 163 -3 151 4 166 6 212 30 102 52 120 116
110 397 -8 214 -16 249 -63 273 -21 11 -98 15 -344 17 l-318 3 0 30 0 29 -75
0 -75 0 0 -60z m125 -10 l29 -30 159 0 160 0 58 -55 c44 -43 65 -55 89 -55 27
0 30 -2 20 -19 -5 -11 -10 -30 -10 -44 0 -37 -10 -39 -48 -6 -46 40 -80 53
-109 40 -13 -6 -23 -15 -23 -21 0 -5 -7 -10 -15 -10 -8 0 -20 -9 -27 -20 -7
-11 -17 -20 -23 -20 -15 0 -71 47 -64 54 3 3 30 10 60 16 66 13 91 33 68 56
-19 18 -191 48 -233 40 -22 -5 -32 -1 -43 14 -11 16 -25 20 -67 20 -57 0 -73
13 -61 51 9 28 47 23 80 -11z m632 -26 c-3 -4 -41 -10 -84 -14 l-78 -7 65 -3
65 -3 -55 -7 -55 -7 65 -2 65 -3 -73 -16 -74 -15 -41 42 -42 41 124 0 c69 0
122 -3 118 -6z m58 -47 c12 -18 15 -67 17 -242 3 -203 1 -223 -17 -260 -26
-51 -83 -83 -164 -91 -33 -4 -61 -4 -61 -1 0 13 32 87 38 87 3 0 14 -8 25 -17
18 -17 20 -17 42 10 28 31 45 85 45 140 0 26 9 50 26 73 26 34 27 37 15 90 -7
30 -26 81 -42 112 -25 47 -28 58 -16 67 7 5 19 20 26 33 15 28 46 28 66 -1z
m-811 -12 c-23 -17 -11 -20 19 -3 12 6 51 13 87 15 l65 3 -54 -30 c-42 -23
-67 -30 -111 -30 -72 0 -91 16 -47 40 41 22 68 26 41 5z m387 -35 c92 0 69
-16 -33 -24 -51 -4 -95 -11 -98 -15 -6 -9 -82 -20 -77 -12 1 4 9 19 17 35 14
28 16 28 74 22 32 -3 85 -6 117 -6z m-241 -29 c-12 -24 -30 -28 -30 -6 0 13
31 38 38 30 2 -2 -1 -13 -8 -24z m-82 -20 c3 -20 0 -21 -90 -20 -83 1 -89 3
-55 12 20 6 37 15 37 21 0 7 21 11 52 10 46 -1 53 -4 56 -23z m668 -93 c17
-75 17 -78 -1 -98 -18 -20 -19 -19 -52 81 -33 103 -37 140 -8 78 8 -19 13 -26
10 -16 -3 11 -8 31 -11 45 l-5 27 16 -25 15 -25 -5 30 -6 30 14 -25 c8 -14 23
-60 33 -102z m-164 15 c29 -30 58 -91 58 -120 -1 -10 -12 5 -26 34 -23 47
-104 133 -125 133 -5 0 -9 5 -9 10 0 16 71 -24 102 -57z m-115 -5 c17 -18 40
-48 51 -66 18 -31 20 -32 25 -11 6 21 10 18 57 -31 42 -46 50 -60 50 -92 0
-36 -1 -37 -21 -26 -11 7 -29 32 -39 56 -11 24 -32 50 -49 60 -16 9 -34 27
-40 39 -6 12 -27 40 -47 62 -43 48 -32 56 13 9z m239 -125 c14 -74 8 -149 -17
-194 -15 -30 -20 -18 -9 22 14 49 12 153 -5 234 -8 38 -15 72 -14 75 3 17 33
-76 45 -137z m-196 -40 l8 -38 2 35 c3 34 3 34 10 -10 l7 -45 2 45 c2 74 21
26 21 -55 0 -49 -3 -65 -10 -55 -8 12 -10 11 -10 -8 0 -25 -28 -98 -35 -91 -2
3 2 27 11 54 8 27 13 54 11 60 -2 5 -7 -5 -11 -22 -14 -62 -21 -40 -21 67 0
113 3 126 15 63z m91 -140 c-17 -56 -58 -123 -76 -123 -2 0 17 45 43 99 26 54
49 97 51 95 2 -1 -6 -34 -18 -71z"/>
<path d="M1145 1041 c-76 -19 -144 -77 -179 -151 -32 -69 -29 -188 6 -256 69
-131 211 -180 337 -118 157 78 194 308 72 446 -55 63 -161 98 -236 79z m143
-60 c172 -89 172 -346 -1 -427 -82 -38 -152 -29 -221 28 -128 105 -108 325 36
397 55 27 135 28 186 2z"/>
<path d="M1146 950 c-64 -20 -125 -109 -126 -184 0 -53 34 -120 77 -153 26
-20 50 -28 93 -31 72 -5 121 16 161 71 107 147 -32 348 -205 297z m69 -20 c-3
-6 1 -7 9 -4 9 3 16 2 16 -4 0 -5 -15 -12 -32 -15 -18 -3 -42 -9 -52 -13 -15
-6 -17 -4 -11 7 4 8 6 12 2 9 -3 -3 -6 -9 -7 -15 -1 -5 -11 -23 -22 -38 -26
-36 -34 -107 -18 -147 16 -39 65 -80 93 -79 20 1 20 2 2 6 -77 20 -118 119
-80 194 20 38 71 69 110 68 27 -1 25 -2 -11 -10 -52 -12 -84 -46 -91 -97 -11
-82 29 -141 96 -143 20 0 30 -3 23 -6 -6 -2 -10 -9 -6 -14 3 -5 -3 -9 -13 -10
-16 0 -16 -1 2 -10 15 -7 7 -8 -29 -5 -85 7 -146 73 -146 158 0 87 47 150 124
168 44 11 48 11 41 0z m95 -90 c43 -43 11 -120 -48 -120 -37 0 -65 31 -65 72
0 59 72 89 113 48z m10 -157 c0 -12 -33 -43 -45 -43 -7 0 -20 9 -29 19 -17 19
-17 20 21 24 21 2 41 4 46 5 4 1 7 -1 7 -5z"/>
<path d="M1070 732 c0 -21 26 -65 51 -87 l24 -20 -22 25 c-12 14 -29 41 -37
60 -8 19 -15 29 -16 22z"/>
</g>
</svg>
