<?xml version="1.0" standalone="no"?>
<!DOCTYPE svg PUBLIC "-//W3C//DTD SVG 20010904//EN"
 "http://www.w3.org/TR/2001/REC-SVG-20010904/DTD/svg10.dtd">
<svg version="1.0" xmlns="http://www.w3.org/2000/svg"
 width="216.000000pt" height="233.000000pt" viewBox="0 0 216.000000 233.000000"
 preserveAspectRatio="xMidYMid meet">
<metadata>
Created by potrace 1.10, written by Peter Selinger 2001-2011
</metadata>
<g transform="translate(0.000000,233.000000) scale(0.100000,-0.100000)"
fill="#000000" stroke="none">
<path d="M699 1706 c-318 -92 -423 -481 -194 -711 182 -181 490 -159 641 46
51 69 75 140 81 234 11 173 -81 324 -244 402 -61 30 -86 36 -155 39 -51 2
-101 -2 -129 -10z m150 -61 c32 -16 41 -33 41 -76 0 -42 -14 -64 -49 -79 -60
-25 -121 15 -121 79 1 73 64 110 129 76z m-149 -9 c0 -3 -4 -16 -10 -30 -14
-39 -1 -84 37 -122 27 -28 41 -34 75 -34 80 0 144 81 119 152 -14 39 -14 38 7
38 27 0 112 -57 112 -75 0 -8 -8 -15 -19 -15 -38 0 -101 -71 -101 -115 0 -32
34 -88 64 -106 45 -27 86 -24 134 11 23 16 43 26 46 22 5 -8 8 -63 7 -109 -1
-39 -11 -41 -47 -8 -58 54 -149 36 -187 -38 -32 -63 5 -143 78 -167 20 -6 32
-16 29 -22 -11 -17 -97 -68 -115 -68 -15 0 -16 5 -7 38 25 101 -81 184 -173
136 -43 -22 -72 -89 -59 -134 5 -19 8 -36 5 -38 -8 -9 -73 20 -106 47 l-34 29
30 7 c59 15 112 85 101 136 -8 44 -36 80 -73 95 -47 20 -65 18 -114 -15 -24
-16 -47 -27 -51 -25 -11 7 -10 132 1 139 5 3 22 -6 37 -20 72 -67 184 -24 200
77 7 43 -28 96 -79 121 -20 10 -37 22 -37 27 0 11 49 46 81 59 26 11 49 14 49
7z m-170 -61 c0 -9 -51 -58 -55 -53 -5 5 38 58 48 58 4 0 7 -2 7 -5z m586 -22
c13 -15 21 -29 19 -31 -4 -5 -55 44 -55 53 0 12 14 3 36 -22z m-504 -44 c28
-15 50 -72 39 -102 -26 -67 -103 -83 -148 -31 -65 73 22 179 109 133z m493
-14 c52 -51 23 -136 -51 -151 -24 -4 -37 0 -62 21 -64 54 -29 155 53 155 25 0
44 -8 60 -25z m-476 -280 c55 -54 14 -145 -65 -145 -69 0 -109 80 -68 138 33
47 90 50 133 7z m479 3 c31 -30 30 -91 -3 -123 -55 -56 -145 -16 -145 63 0 80
87 116 148 60z m-249 -135 c44 -41 45 -91 5 -128 -57 -53 -144 -15 -144 64 0
32 6 44 31 65 39 33 71 33 108 -1z m280 -20 c-26 -33 -40 -45 -45 -40 -7 7 37
55 50 56 5 1 2 -7 -5 -16z m-60 -69 c-6 -8 -16 -14 -21 -14 -5 0 -18 -9 -30
-20 -12 -10 -25 -17 -30 -14 -4 3 -8 0 -8 -5 0 -6 -4 -11 -10 -11 -19 0 -10
19 12 26 12 3 30 15 41 25 11 10 24 16 29 13 4 -3 8 2 8 11 0 9 5 13 10 10 8
-5 7 -11 -1 -21z m-480 -32 c7 -7 11 -15 9 -17 -2 -3 -14 4 -26 15 -12 11 -26
20 -32 20 -6 0 -8 5 -5 10 7 11 20 4 54 -28z"/>
<path d="M761 1354 c-23 -19 -31 -34 -31 -59 0 -25 8 -40 31 -59 39 -33 51
-33 90 2 22 19 32 37 32 57 0 20 -10 38 -32 57 -39 35 -51 35 -90 2z m79 -28
c16 -21 9 -56 -15 -72 -41 -27 -88 39 -53 74 16 16 53 15 68 -2z"/>
<path d="M1096 1635 c10 -8 27 -15 37 -15 9 0 17 -8 17 -17 0 -9 12 -34 26
-55 l27 -38 268 0 269 0 0 -215 0 -215 -269 0 -268 0 -27 -40 c-14 -22 -26
-46 -26 -55 0 -8 -8 -15 -17 -15 -17 -1 -53 -22 -53 -31 0 -2 157 -3 350 -1
301 2 350 5 350 17 0 8 -7 15 -15 15 -10 0 -15 11 -15 35 0 24 5 35 15 35 13
0 15 35 15 255 0 220 -2 255 -15 255 -10 0 -15 11 -15 35 0 24 5 35 15 35 8 0
15 7 15 15 0 13 -46 15 -352 15 -311 0 -350 -2 -332 -15z m192 -52 c3 -32 2
-33 -32 -33 -35 0 -36 1 -36 36 0 34 1 35 33 32 28 -3 32 -7 35 -35z m132 2
c0 -33 -2 -35 -35 -35 -33 0 -35 2 -35 35 0 33 2 35 35 35 33 0 35 -2 35 -35z
m130 0 c0 -33 -2 -35 -35 -35 -33 0 -35 2 -35 35 0 33 2 35 35 35 33 0 35 -2
35 -35z m130 0 c0 -33 -2 -35 -35 -35 -32 0 -35 3 -35 28 0 16 3 32 7 35 3 4
19 7 35 7 25 0 28 -3 28 -35z m-395 -580 c0 -27 -4 -30 -32 -33 -32 -3 -33 -2
-33 33 0 35 1 36 33 33 28 -3 32 -6 32 -33z m135 0 c0 -33 -2 -35 -35 -35 -33
0 -35 2 -35 35 0 33 2 35 35 35 33 0 35 -2 35 -35z m130 0 c0 -33 -2 -35 -35
-35 -33 0 -35 2 -35 35 0 33 2 35 35 35 33 0 35 -2 35 -35z m130 -1 c0 -34 -1
-35 -32 -32 -29 3 -33 7 -36 36 -3 31 -2 32 32 32 35 0 36 -1 36 -36z"/>
<path d="M1033 773 c20 -2 54 -2 75 0 20 2 3 4 -38 4 -41 0 -58 -2 -37 -4z"/>
<path d="M0 150 c0 -11 7 -20 15 -20 10 0 15 -10 15 -28 0 -17 10 -37 23 -50
22 -21 32 -22 219 -22 180 0 196 1 212 19 13 14 16 28 11 50 l-7 31 486 0 486
0 -7 -30 c-4 -22 0 -36 12 -50 17 -19 32 -20 326 -20 l309 0 17 26 c13 21 14
30 5 45 -17 26 -15 29 13 29 18 0 25 5 25 20 0 20 -7 20 -1080 20 -1073 0
-1080 0 -1080 -20z m107 -43 c-3 -8 4 -12 22 -11 14 1 28 3 31 4 3 1 9 2 14 1
5 -1 13 4 17 11 7 10 9 10 9 1 0 -16 76 -18 85 -3 8 13 35 13 35 -1 0 -5 -4
-7 -10 -4 -6 3 -10 1 -10 -4 0 -6 5 -11 10 -11 6 0 10 -7 10 -15 0 -8 -9 -15
-20 -15 -11 0 -20 4 -20 10 0 5 8 7 18 4 14 -5 15 -4 2 5 -21 15 -30 14 -30
-4 0 -22 -80 -18 -81 4 -1 14 -2 13 -6 -1 -5 -19 -59 -22 -80 -5 -16 12 -17
47 -2 47 6 0 9 -6 6 -13z m343 2 c0 -5 5 -7 12 -3 7 5 9 2 5 -8 -3 -9 -1 -20
5 -26 6 -6 -16 -9 -65 -9 -65 0 -76 3 -80 18 -7 25 4 30 41 19 21 -6 34 -5 38
2 5 7 12 4 22 -8 13 -18 14 -18 7 4 -4 13 -2 22 4 22 6 0 11 -5 11 -11z m1436
-15 c-5 -13 -3 -14 6 -7 19 15 150 15 142 0 -5 -8 -2 -8 7 1 21 20 59 15 59
-7 0 -18 -7 -20 -75 -18 -54 1 -79 6 -86 17 -9 13 -10 12 -5 -3 4 -14 1 -16
-21 -12 -15 2 -32 0 -39 -6 -8 -7 -17 -5 -28 6 -9 9 -16 12 -16 6 0 -8 -55
-11 -172 -10 -162 1 -187 5 -188 29 0 3 61 5 136 5 108 -1 137 -4 144 -15 8
-12 10 -12 10 -2 0 10 14 13 55 10 37 -2 56 1 60 10 2 6 7 12 11 12 3 0 3 -7
0 -16z"/>
</g>
</svg>
