<?xml version="1.0" standalone="no"?>
<!DOCTYPE svg PUBLIC "-//W3C//DTD SVG 20010904//EN"
 "http://www.w3.org/TR/2001/REC-SVG-20010904/DTD/svg10.dtd">
<svg version="1.0" xmlns="http://www.w3.org/2000/svg"
 width="300.000000pt" height="200.000000pt" viewBox="0 0 300.000000 200.000000"
 preserveAspectRatio="xMidYMid meet">
<metadata>
Created by potrace 1.10, written by Peter Selinger 2001-2011
</metadata>
<g transform="translate(0.000000,200.000000) scale(0.100000,-0.100000)"
fill="#000000" stroke="none">
<path d="M1847 1775 c-14 -64 -32 -89 -124 -172 -170 -153 -216 -199 -244
-242 -39 -61 -36 -67 14 -31 23 17 97 66 163 110 172 112 208 167 202 308 -3
64 -3 65 -11 27z"/>
<path d="M1970 1667 c0 -88 -57 -146 -307 -314 -213 -142 -303 -215 -329 -264
-18 -35 -12 -36 29 -5 18 13 114 59 215 101 248 105 314 155 371 286 27 62 48
196 32 212 -8 8 -11 4 -11 -16z m-97 -248 c-28 -48 -90 -97 -178 -139 -175
-83 -164 -63 37 71 82 54 152 99 154 99 3 0 -3 -14 -13 -31z"/>
<path d="M1187 1504 c-69 -98 -90 -206 -62 -318 17 -66 17 -68 -3 -82 -36 -25
-121 -140 -149 -201 -73 -157 6 -343 166 -390 32 -9 71 -13 95 -10 l41 6 18
-77 c21 -94 21 -115 2 -152 -27 -51 -86 -74 -139 -54 -22 8 -20 24 2 24 52 0
70 83 27 125 -65 66 -159 -19 -121 -109 41 -99 211 -102 261 -6 20 38 19 89
-4 182 l-18 77 35 23 c73 48 99 115 81 208 -9 45 -19 63 -55 97 l-44 42 43 11
c130 35 321 93 363 110 154 66 276 210 319 377 26 101 18 116 -20 37 -57 -117
-100 -146 -470 -310 -130 -58 -260 -120 -289 -140 l-51 -34 -8 37 c-8 35 -5
44 35 103 80 119 111 276 72 368 -15 37 -70 102 -86 102 -5 0 -23 -21 -41 -46z
m83 -89 c18 -22 8 -104 -19 -155 -31 -59 -71 -111 -82 -104 -5 3 -9 36 -9 73
0 131 65 241 110 186z m655 -194 c-10 -33 -118 -124 -188 -159 -36 -17 -136
-52 -222 -77 -198 -56 -236 -79 -207 -126 7 -10 12 -20 12 -21 0 -2 -29 -4
-64 -5 -36 -1 -75 -7 -87 -13 -17 -10 -20 -9 -13 2 48 81 111 119 442 267 119
53 242 111 272 128 30 17 56 30 58 28 2 -2 1 -13 -3 -24z m-712 -113 c-19 -35
-154 -170 -162 -163 -11 12 148 195 170 195 5 0 2 -15 -8 -32z m-30 -154 c5
-26 1 -36 -24 -60 -91 -86 -95 -226 -9 -278 44 -26 54 -19 21 15 -33 33 -40
69 -19 113 10 23 56 63 62 54 1 -2 12 -54 25 -117 12 -62 25 -120 28 -127 6
-17 -55 -28 -104 -19 -54 10 -100 41 -131 88 -37 56 -37 141 0 212 31 59 128
170 138 158 4 -4 10 -22 13 -39z m142 -187 c35 -35 52 -89 41 -132 -7 -26 -61
-94 -68 -85 -3 3 -14 53 -27 113 -12 59 -24 114 -27 122 -12 30 46 17 81 -18z
m-164 -438 c9 -18 7 -25 -9 -42 -25 -24 -52 -16 -52 16 0 45 41 63 61 26z"/>
</g>
</svg>
