<?xml version="1.0" standalone="no"?>
<!DOCTYPE svg PUBLIC "-//W3C//DTD SVG 20010904//EN"
 "http://www.w3.org/TR/2001/REC-SVG-20010904/DTD/svg10.dtd">
<svg version="1.0" xmlns="http://www.w3.org/2000/svg"
 width="216.000000pt" height="233.000000pt" viewBox="0 0 216.000000 233.000000"
 preserveAspectRatio="xMidYMid meet">
<metadata>
Created by potrace 1.10, written by Peter Selinger 2001-2011
</metadata>
<g transform="translate(0.000000,233.000000) scale(0.100000,-0.100000)"
fill="#000000" stroke="none">
<path d="M1061 2066 c-6 -7 -21 -40 -33 -72 -20 -54 -22 -83 -26 -324 l-4
-265 -89 -42 -88 -42 -3 57 c-3 51 -6 57 -30 66 -19 7 -36 6 -54 -2 -26 -12
-26 -14 -23 -96 l4 -84 -122 -73 c-219 -130 -253 -157 -305 -240 -26 -41 -47
-77 -47 -82 -1 -4 22 4 50 18 28 14 91 43 140 65 86 37 89 38 90 17 1 -20 1
-20 10 4 6 16 23 30 47 38 20 8 43 16 51 19 11 4 13 0 8 -14 -6 -15 -4 -14 11
4 25 32 76 41 224 42 l126 0 5 -212 c2 -117 7 -222 11 -234 7 -18 -3 -27 -66
-64 -40 -23 -83 -52 -95 -63 -24 -21 -31 -57 -12 -57 10 0 174 45 201 55 12 5
17 -3 22 -29 8 -44 24 -47 33 -6 3 17 10 30 16 30 6 0 55 -12 109 -26 54 -15
101 -24 105 -20 16 15 -26 59 -102 106 l-83 50 14 47 c10 32 14 102 14 235 l0
188 123 0 c143 -1 194 -10 219 -42 15 -18 17 -19 11 -4 -5 14 -3 18 8 14 8 -3
31 -11 51 -19 24 -8 41 -22 47 -38 9 -24 9 -24 10 -4 1 21 4 20 90 -17 49 -22
112 -51 140 -65 28 -14 51 -22 50 -18 0 5 -21 41 -47 82 -52 83 -86 110 -305
240 l-122 73 3 84 c3 82 3 84 -23 96 -18 8 -34 9 -53 2 -25 -9 -27 -15 -30
-66 l-3 -57 -82 40 -82 39 -6 268 c-5 241 -8 273 -27 326 -24 65 -38 86 -57
86 -7 0 -18 -6 -24 -14z m50 -104 c7 -22 14 -141 18 -298 6 -243 7 -264 26
-284 20 -22 148 -90 171 -90 19 0 42 34 49 73 11 60 30 38 33 -39 4 -85 11
-93 141 -170 118 -70 237 -150 246 -165 14 -22 -6 -21 -67 4 -231 94 -282 107
-425 107 -104 0 -114 -2 -140 -24 l-28 -24 -7 -204 c-4 -111 -10 -217 -13
-234 -6 -25 -1 -36 23 -62 17 -18 29 -32 29 -33 -7 -4 -177 -3 -177 1 0 3 13
17 28 32 l29 27 -4 233 -5 233 -29 28 c-29 26 -32 27 -147 27 -149 0 -196 -12
-427 -106 -126 -51 -108 -21 50 81 61 39 135 86 165 103 86 48 98 66 102 146
3 77 22 99 33 39 7 -40 30 -73 50 -73 25 0 174 80 189 101 14 20 16 57 16 251
0 213 8 306 32 351 12 24 25 14 39 -31z"/>
<path d="M0 150 c0 -11 7 -20 15 -20 10 0 15 -10 15 -28 0 -17 10 -37 23 -50
22 -21 32 -22 219 -22 180 0 196 1 212 19 13 14 16 28 11 50 l-7 31 481 0
c265 0 481 -3 481 -6 0 -3 -4 -14 -10 -24 -7 -13 -4 -24 11 -44 l20 -26 314 0
315 0 17 26 c13 21 14 30 5 45 -17 26 -15 29 13 29 18 0 25 5 25 20 0 20 -7
20 -1080 20 -1073 0 -1080 0 -1080 -20z m78 -55 c14 -31 15 -35 3 -35 -5 0
-14 14 -20 30 -12 36 1 40 17 5z m29 12 c-3 -8 4 -12 22 -11 14 1 28 3 31 4 3
1 9 2 14 1 5 -1 13 4 17 11 7 10 9 10 9 1 0 -16 76 -18 85 -3 8 13 35 13 35
-1 0 -5 -4 -7 -10 -4 -6 3 -10 1 -10 -4 0 -6 5 -11 10 -11 6 0 10 -7 10 -15 0
-8 -9 -15 -20 -15 -11 0 -20 4 -20 10 0 5 8 7 18 4 14 -5 15 -4 2 5 -21 15
-30 14 -30 -4 0 -22 -80 -18 -81 4 -1 14 -2 13 -6 -1 -5 -19 -59 -22 -80 -5
-16 12 -17 47 -2 47 6 0 9 -6 6 -13z m266 -9 c15 -3 30 -1 34 5 3 6 12 2 21
-9 13 -18 14 -18 7 4 -4 13 -2 22 4 22 6 0 11 -5 11 -11 0 -5 5 -7 12 -3 7 5
9 2 5 -8 -3 -9 -1 -20 5 -26 6 -6 -16 -9 -65 -9 -61 0 -76 3 -80 16 -5 21 4
46 12 34 3 -6 18 -12 34 -15z m1107 -13 c0 6 45 9 118 8 149 -2 144 -1 137
-13 -3 -5 -1 -10 4 -10 6 0 11 5 11 11 0 7 20 10 55 7 30 -1 55 0 55 5 0 4 54
7 120 7 113 0 120 -1 120 -20 0 -17 -7 -20 -50 -20 -41 0 -50 3 -51 18 -1 16
-2 16 -6 0 -2 -10 -8 -18 -13 -18 -5 0 -7 8 -4 18 5 16 5 16 -6 0 -13 -21 -63
-21 -56 -1 3 7 1 13 -4 13 -6 0 -10 -7 -10 -16 0 -11 -6 -15 -20 -11 -11 3
-20 1 -20 -5 0 -5 -4 -7 -8 -4 -5 3 -42 6 -83 7 -41 1 -80 7 -88 13 -11 8 -13
8 -7 -1 5 -10 -3 -13 -28 -13 -22 0 -36 5 -36 13 0 9 -2 9 -9 -1 -6 -10 -27
-13 -72 -10 -55 3 -64 6 -67 23 -3 16 -1 17 7 5 6 -8 11 -10 11 -5z"/>
</g>
</svg>
