<?xml version="1.0" standalone="no"?>
<!DOCTYPE svg PUBLIC "-//W3C//DTD SVG 20010904//EN"
 "http://www.w3.org/TR/2001/REC-SVG-20010904/DTD/svg10.dtd">
<svg version="1.0" xmlns="http://www.w3.org/2000/svg"
 width="300.000000pt" height="300.000000pt" viewBox="0 0 300.000000 300.000000"
 preserveAspectRatio="xMidYMid meet">
<metadata>
Created by potrace 1.10, written by Peter Selinger 2001-2011
</metadata>
<g transform="translate(0.000000,300.000000) scale(0.100000,-0.100000)"
fill="#000000" stroke="none">
<path d="M570 2974 c-81 -17 -229 -90 -295 -145 -156 -130 -265 -347 -265
-531 0 -45 10 -60 16 -25 11 61 61 225 85 277 98 211 259 336 512 395 62 14
119 30 127 35 23 15 -104 11 -180 -6z"/>
<path d="M870 2963 c159 -38 250 -65 250 -75 0 -19 -31 -68 -43 -68 -6 0 -23
9 -37 20 -44 34 -78 26 -147 -35 -73 -66 -96 -105 -83 -141 13 -32 129 -149
158 -158 15 -5 34 -1 59 14 39 23 53 21 28 -4 -9 -9 -13 -16 -9 -16 3 0 1 -7
-6 -15 -19 -23 -5 -57 45 -113 62 -69 107 -96 147 -88 29 6 30 5 25 -24 -8
-35 1 -63 16 -53 6 3 7 1 3 -5 -8 -14 75 -104 122 -134 28 -17 37 -18 62 -8
32 13 146 130 163 168 6 12 15 22 21 22 6 0 38 16 70 36 32 19 65 33 72 30 29
-11 89 -159 123 -305 16 -67 20 -111 17 -220 -1 -75 -5 -151 -9 -169 -8 -41
16 -175 48 -272 50 -151 150 -316 206 -340 38 -16 746 -725 781 -781 l29 -48
-27 -42 c-33 -53 -50 -70 -97 -98 l-37 -23 -48 30 c-57 35 -739 718 -781 782
-76 116 -392 254 -576 250 -370 -6 -363 -6 -470 21 -282 73 -536 259 -714 524
-85 125 -141 263 -177 434 -30 141 -43 168 -44 88 0 -114 43 -272 113 -412
147 -294 421 -539 719 -644 164 -57 366 -77 511 -50 66 12 176 -5 293 -45 138
-47 300 -144 311 -186 6 -28 731 -763 775 -786 42 -22 144 -18 184 7 52 32 74
76 74 148 0 34 -6 74 -14 89 -23 44 -758 769 -786 775 -26 7 -85 88 -132 182
-73 145 -117 334 -99 424 16 77 14 246 -4 337 -21 111 -50 194 -107 311 l-51
103 -39 -36 c-44 -40 -131 -84 -165 -84 -29 0 -38 -16 -16 -29 16 -9 8 -20
-62 -90 l-80 -81 -77 77 -78 77 30 31 30 31 -41 27 -42 28 -24 -23 -24 -22
-77 77 -76 77 36 37 c28 28 35 42 28 53 -5 8 -10 32 -10 53 0 20 -4 37 -9 37
-4 0 -32 -25 -61 -56 l-53 -56 -78 78 -79 79 72 72 c40 40 78 73 84 73 7 0 36
-25 65 -55 l53 -55 18 58 c10 32 29 76 43 97 14 20 25 38 23 40 -2 1 -32 12
-68 24 -104 34 -199 51 -280 50 l-75 -1 105 -25z"/>
<path d="M1363 2969 c-29 -11 -53 -24 -53 -28 0 -5 28 -21 63 -37 48 -22 77
-28 127 -28 50 0 79 6 128 28 34 16 62 32 62 37 0 14 -113 50 -149 47 l-36 -3
38 -20 c20 -10 36 -24 34 -29 -10 -29 -144 -29 -154 0 -2 5 16 20 39 31 l43
22 -45 0 c-25 0 -69 -9 -97 -20z"/>
<path d="M703 2883 c-29 -6 -54 -40 -45 -62 19 -47 72 -91 109 -91 27 0 91 55
105 89 8 22 5 29 -17 48 -20 18 -37 23 -78 22 -29 -1 -62 -4 -74 -6z m111 -78
c-26 -25 -50 -45 -53 -45 -9 0 -81 73 -81 82 0 4 41 8 91 8 l92 0 -49 -45z"/>
<path d="M1232 2863 c-75 -108 -85 -238 -27 -353 31 -61 48 -75 66 -54 21 26
101 61 167 74 49 10 75 10 124 0 66 -13 146 -48 167 -74 18 -21 35 -7 66 53
55 111 50 232 -15 335 l-31 48 -22 -20 c-12 -12 -49 -33 -82 -49 -51 -23 -73
-28 -145 -28 -72 0 -94 5 -145 28 -33 16 -70 37 -81 48 l-22 20 -20 -28z m104
-75 c63 -30 78 -33 166 -33 64 0 101 4 110 13 6 6 18 12 26 12 8 0 35 10 59
22 l45 22 18 -24 c35 -47 41 -180 10 -247 -10 -24 -24 -43 -29 -43 -6 0 -35
11 -66 25 -117 54 -232 54 -350 0 -30 -14 -59 -25 -65 -25 -23 0 -50 83 -50
155 0 69 27 155 48 155 6 0 41 -15 78 -32z"/>
<path d="M465 2817 c-78 -38 -136 -95 -128 -125 7 -28 145 -170 177 -182 34
-13 57 -1 124 62 64 60 87 98 79 130 -9 35 -132 148 -160 148 -12 0 -54 -15
-92 -33z m160 -62 c36 -35 65 -67 65 -69 0 -3 -35 -39 -77 -80 l-78 -76 -88
88 -89 89 53 34 c42 26 129 73 147 78 1 1 32 -28 67 -64z"/>
<path d="M254 2638 c-39 -34 -104 -156 -104 -195 0 -27 112 -151 144 -159 34
-8 62 7 122 66 63 62 88 102 79 130 -11 34 -174 190 -199 190 -3 0 -22 -15
-42 -32z m140 -251 c-41 -42 -78 -77 -81 -77 -2 0 -33 29 -69 64 l-63 65 21
48 c12 26 37 72 56 101 l36 53 88 -88 88 -88 -76 -78z"/>
<path d="M734 2634 c-49 -24 -145 -129 -150 -166 -5 -29 2 -40 48 -91 61 -67
104 -97 136 -97 27 0 155 118 172 160 11 27 9 33 -16 68 -33 43 -108 114 -139
130 -16 8 -29 7 -51 -4z m110 -245 c-41 -41 -79 -75 -82 -77 -4 -1 -41 32 -82
73 l-75 75 79 79 79 79 79 -78 78 -78 -76 -73z"/>
<path d="M1443 2450 c-43 -9 -118 -43 -127 -59 -3 -5 18 -19 47 -32 74 -34
200 -33 275 0 61 27 58 37 -16 69 -58 24 -124 33 -179 22z m132 -51 c12 -18
-5 -24 -75 -24 -70 0 -95 9 -70 25 21 13 137 12 145 -1z"/>
<path d="M484 2391 c-51 -37 -99 -89 -118 -125 -17 -34 -11 -53 37 -103 42
-45 30 -50 -18 -8 -47 40 -79 50 -102 33 -39 -30 -141 -140 -146 -157 -2 -10
2 -33 10 -49 22 -45 137 -152 164 -152 35 0 100 54 166 137 28 36 25 58 -15
111 -30 40 -18 41 28 2 19 -17 41 -30 50 -30 39 0 180 147 180 187 0 44 -136
183 -180 183 -9 0 -35 -13 -56 -29z m136 -76 l74 -75 -74 -77 c-41 -43 -76
-79 -77 -82 -2 -2 -38 32 -82 75 l-79 79 76 78 c42 42 79 77 82 77 3 0 39 -34
80 -75z m-151 -307 c-2 -2 -39 -36 -80 -76 l-76 -74 -72 73 c-39 41 -71 78
-71 84 0 5 33 42 72 82 l73 73 79 -80 c44 -43 78 -81 75 -82z"/>
<path d="M897 2360 c-68 -63 -98 -110 -90 -141 7 -25 136 -155 162 -164 30 -9
71 17 139 90 84 89 83 99 -17 197 -99 98 -108 98 -194 18z m170 -46 l75 -76
-73 -76 c-41 -42 -75 -79 -77 -81 -1 -3 -38 31 -82 74 l-80 80 77 77 c43 43
79 78 81 78 2 0 37 -34 79 -76z"/>
<path d="M152 2343 c-23 -9 -42 -62 -42 -121 0 -48 4 -62 23 -80 31 -29 40
-28 82 9 72 63 74 92 11 155 -34 33 -54 44 -74 37z m50 -60 c21 -20 38 -40 38
-45 0 -4 -20 -28 -45 -54 l-45 -46 0 91 c0 50 3 91 7 91 4 0 24 -17 45 -37z"/>
<path d="M736 2185 c-34 -18 -128 -110 -145 -143 -20 -38 -7 -63 73 -140 93
-90 104 -91 186 -16 78 73 103 109 96 137 -6 26 -75 103 -130 146 -45 36 -42
35 -80 16z m183 -177 c-2 -2 -39 -36 -80 -76 l-76 -74 -78 77 -79 76 80 80 79
79 79 -80 c44 -43 78 -81 75 -82z"/>
<path d="M1164 2172 c-66 -49 -134 -128 -134 -157 0 -18 18 -47 52 -86 56 -64
103 -99 136 -99 24 0 117 82 157 140 25 36 27 43 15 64 -18 34 -141 153 -166
160 -14 4 -33 -3 -60 -22z m125 -237 l-79 -80 -77 78 -78 77 79 79 79 79 77
-76 77 -77 -78 -80z"/>
<path d="M1560 2122 c-85 -85 -94 -106 -63 -152 46 -69 131 -140 169 -140 24
0 124 91 157 143 26 41 10 80 -66 154 -93 92 -101 92 -197 -5z m240 -103 c7
-12 -9 -33 -66 -90 l-74 -74 -77 78 -78 77 79 79 78 78 65 -66 c35 -36 68 -73
73 -82z"/>
<path d="M484 1942 c-41 -30 -117 -116 -126 -142 -3 -8 1 -27 8 -41 16 -32
150 -159 168 -159 43 0 186 146 186 190 0 42 -140 180 -183 180 -7 0 -32 -13
-53 -28z m136 -77 l75 -75 -78 -78 -78 -78 -78 75 -79 76 76 78 c42 42 79 77
82 77 3 0 39 -34 80 -75z"/>
<path d="M925 1938 c-59 -49 -95 -89 -111 -126 -14 -30 -13 -35 5 -61 27 -38
149 -151 163 -151 40 0 188 145 188 185 0 25 -29 66 -86 122 -74 73 -101 79
-159 31z m145 -73 l75 -75 -79 -79 -78 -79 -78 77 -78 76 76 78 c42 42 79 77
82 77 3 0 39 -34 80 -75z"/>
<path d="M1346 1909 c-72 -66 -100 -109 -91 -139 8 -26 137 -156 163 -164 29
-10 75 19 140 88 66 70 73 95 36 144 -52 69 -127 132 -158 132 -14 0 -49 -24
-90 -61z m170 -45 l77 -75 -79 -80 -79 -79 -77 77 -78 78 77 77 c43 43 78 78
80 78 1 0 36 -34 79 -76z"/>
<path d="M1762 1874 c-39 -31 -65 -78 -57 -103 9 -30 77 -91 101 -91 37 0 54
36 54 116 0 56 -4 74 -18 87 -25 23 -41 21 -80 -9z m68 -31 c0 -21 -3 -62 -7
-91 l-6 -53 -43 42 -43 43 42 47 c23 26 45 47 50 48 4 1 7 -16 7 -36z"/>
<path d="M725 1732 c-16 -11 -56 -47 -87 -81 -79 -85 -78 -96 21 -193 90 -88
108 -94 161 -48 41 35 62 40 33 8 -45 -50 -55 -75 -42 -100 20 -38 119 -136
151 -149 24 -10 34 -9 64 7 50 27 144 130 144 158 0 46 -136 186 -181 186 -15
0 -42 -15 -66 -35 -23 -19 -45 -35 -50 -35 -4 0 -3 4 3 8 5 4 25 28 43 54 22
31 31 52 27 66 -13 40 -151 172 -180 172 -6 0 -24 -8 -41 -18z m116 -245 l-78
-79 -77 78 -77 78 78 78 78 78 77 -77 78 -78 -79 -78z m229 -72 l74 -75 -73
-74 c-57 -57 -78 -73 -90 -66 -9 5 -46 38 -82 73 l-67 64 77 77 c42 42 78 76
81 76 3 0 39 -34 80 -75z"/>
<path d="M1182 1736 c-32 -17 -125 -110 -141 -140 -21 -38 -7 -65 70 -144 53
-53 79 -72 98 -72 29 0 135 82 123 95 -4 5 -2 6 3 2 6 -3 23 14 38 38 31 49
28 69 -20 121 -43 48 -123 114 -136 114 -7 -1 -22 -6 -35 -14z m109 -250 l-80
-79 -77 77 -77 78 79 79 79 79 77 -77 78 -78 -79 -79z"/>
<path d="M1640 1743 c-30 -11 -160 -153 -160 -176 0 -30 21 -59 97 -134 71
-69 95 -81 129 -62 29 15 79 91 105 159 24 63 17 81 -69 163 -59 55 -71 61
-102 50z m150 -163 c0 -16 -65 -138 -90 -170 l-19 -25 -88 87 -88 88 79 79 80
80 63 -64 c35 -35 63 -69 63 -75z"/>
<path d="M292 1728 c-7 -7 -12 -21 -12 -31 0 -27 61 -116 109 -160 44 -40 70
-40 95 -1 21 31 10 56 -56 125 -74 77 -109 94 -136 67z m102 -87 c75 -75 78
-80 62 -97 -17 -16 -19 -16 -42 12 -37 44 -114 151 -114 158 0 16 22 0 94 -73z"/>
<path d="M502 1500 c-32 -30 -27 -56 21 -101 43 -41 133 -99 154 -99 16 0 43
28 43 45 0 20 -86 119 -128 149 -46 31 -61 32 -90 6z m122 -89 c43 -43 74 -81
69 -84 -8 -5 -81 46 -152 106 -27 23 -31 30 -21 42 7 8 15 15 19 15 4 0 42
-35 85 -79z"/>
<path d="M1346 1459 c-62 -57 -96 -103 -96 -129 0 -16 110 -130 142 -146 23
-12 32 -12 70 2 59 20 139 70 161 100 27 36 16 65 -51 132 -74 76 -110 102
-137 102 -13 0 -49 -25 -89 -61z m184 -54 l85 -86 -25 -19 c-32 -25 -155 -90
-169 -90 -7 0 -41 28 -76 63 l-64 62 77 78 c42 42 79 77 82 77 3 0 44 -38 90
-85z"/>
<path d="M1723 1275 c-68 -69 -123 -131 -123 -139 0 -20 32 -41 110 -71 36
-14 90 -39 120 -55 30 -17 74 -40 97 -52 l43 -22 27 20 c15 11 35 32 46 46 21
28 17 42 -41 143 -15 28 -43 86 -61 130 -41 100 -57 125 -79 124 -9 0 -72 -56
-139 -124z m227 -113 c21 -42 48 -90 58 -107 l18 -30 -27 -26 -28 -26 -28 19
c-52 35 -182 98 -254 122 l-72 24 41 26 c53 33 145 125 178 178 l26 41 24 -72
c13 -40 42 -106 64 -149z"/>
<path d="M1147 1257 c-52 -48 -58 -74 -26 -103 16 -15 35 -19 84 -18 71 1 115
22 115 56 0 26 -81 108 -106 108 -11 0 -41 -20 -67 -43z m111 -79 c-55 -8
-138 -10 -138 -2 0 3 21 25 48 49 l47 43 43 -41 43 -42 -43 -7z"/>
</g>
</svg>
