<?xml version="1.0" standalone="no"?>
<!DOCTYPE svg PUBLIC "-//W3C//DTD SVG 20010904//EN"
 "http://www.w3.org/TR/2001/REC-SVG-20010904/DTD/svg10.dtd">
<svg version="1.0" xmlns="http://www.w3.org/2000/svg"
 width="300.000000pt" height="201.000000pt" viewBox="0 0 300.000000 201.000000"
 preserveAspectRatio="xMidYMid meet">
<metadata>
Created by potrace 1.10, written by Peter Selinger 2001-2011
</metadata>
<g transform="translate(0.000000,201.000000) scale(0.100000,-0.100000)"
fill="#000000" stroke="none">
<path d="M870 1999 c-119 -13 -323 -89 -387 -143 -17 -14 -35 -41 -39 -58 -3
-18 -24 -49 -45 -70 -22 -21 -48 -56 -59 -77 -86 -169 -283 -773 -315 -969
-24 -141 -17 -362 12 -444 43 -116 108 -183 216 -219 48 -16 53 -16 82 -1 16
9 109 96 205 192 177 177 292 268 373 296 36 12 132 14 603 12 l560 -3 52 -27
c88 -46 169 -114 342 -287 91 -92 179 -174 195 -183 29 -15 34 -15 82 1 108
36 173 103 216 219 29 82 36 303 12 444 -32 196 -230 801 -316 970 -12 23 -36
55 -55 72 -18 17 -40 49 -47 71 -18 52 -74 95 -179 135 -183 71 -341 91 -398
50 -55 -39 -74 -40 -480 -40 -404 0 -425 1 -479 39 -35 24 -73 29 -151 20z
m104 -29 c57 -58 107 -73 259 -80 l137 -5 -27 -38 c-21 -30 -28 -52 -30 -100
-5 -76 20 -126 85 -171 36 -26 53 -31 102 -31 49 0 66 5 102 31 91 63 113 163
58 260 l-29 52 137 4 c148 4 197 18 258 75 l27 25 86 -27 c296 -92 346 -117
382 -187 12 -24 37 -61 57 -82 59 -66 133 -252 251 -628 87 -277 97 -316 121
-476 19 -121 19 -136 5 -215 -29 -167 -83 -255 -186 -308 -33 -16 -65 -26 -72
-22 -51 30 -115 89 -272 253 -102 106 -215 194 -296 230 l-54 25 -575 0 -575
0 -54 -25 c-81 -36 -194 -124 -296 -230 -159 -166 -221 -223 -272 -253 -15
-10 -101 33 -146 72 -46 41 -83 120 -108 231 -19 86 -20 104 -9 185 24 186 57
313 167 650 102 311 169 469 218 515 15 14 38 46 51 72 13 25 35 55 49 66 33
26 158 75 274 107 52 15 104 33 115 41 27 18 26 18 60 -16z m614 -107 c95 -70
82 -217 -22 -264 -52 -23 -80 -23 -132 0 -109 49 -116 199 -13 269 28 20 43
23 87 20 32 -3 64 -13 80 -25z"/>
<path d="M2192 1754 c-18 -10 -44 -31 -57 -48 -22 -30 -27 -41 -39 -98 -5 -23
-13 -29 -47 -34 -56 -9 -100 -42 -127 -94 -54 -104 13 -223 133 -240 36 -5 40
-8 43 -37 2 -18 1 -33 -1 -33 -2 0 -35 16 -73 36 -65 34 -74 36 -144 32 -90
-4 -156 -34 -206 -91 -56 -67 -69 -103 -69 -197 0 -102 17 -143 87 -211 151
-149 404 -82 474 125 12 37 15 67 11 121 l-7 72 43 -15 c56 -20 107 -10 154
31 41 36 63 81 63 130 0 34 0 35 53 39 65 5 110 34 137 88 37 73 22 151 -40
204 -27 23 -95 49 -117 45 -24 -4 -33 4 -33 31 0 43 -34 104 -71 131 -42 30
-122 36 -167 13z m138 -40 c98 -58 72 -209 -41 -237 -103 -26 -193 106 -134
196 36 55 118 74 175 41z m-216 -188 c134 -56 94 -246 -53 -246 -37 0 -49 6
-82 39 -33 33 -39 45 -39 82 0 55 27 100 71 122 42 20 60 21 103 3z m432 -11
c37 -24 57 -63 57 -109 0 -76 -53 -126 -134 -126 -35 0 -48 6 -80 39 -33 33
-39 45 -39 82 0 109 108 172 196 114z m-238 -113 c3 -31 2 -32 -32 -32 -33 0
-36 2 -36 29 0 23 5 31 23 34 35 7 42 2 45 -31z m12 -87 c47 -24 70 -62 70
-115 0 -72 -57 -130 -128 -130 -67 0 -141 87 -127 150 8 36 49 88 79 100 33
13 74 11 106 -5z m-323 -136 c86 -41 143 -133 143 -229 0 -96 -57 -188 -143
-229 -56 -27 -155 -28 -212 -2 -196 89 -196 373 0 462 57 26 156 25 212 -2z"/>
<path d="M2199 1671 c-21 -22 -29 -39 -29 -66 0 -27 8 -44 29 -66 22 -21 39
-29 66 -29 44 0 95 45 95 84 0 91 -99 138 -161 77z m109 -39 c17 -22 15 -39
-8 -62 -24 -24 -47 -25 -72 -3 -24 21 -23 48 3 74 22 22 55 19 77 -9z"/>
<path d="M2007 1480 c-51 -41 -43 -126 16 -156 64 -34 137 12 137 86 0 77 -91
119 -153 70z m98 -40 c22 -24 14 -65 -16 -80 -16 -9 -26 -8 -45 5 -34 22 -39
41 -20 70 20 30 56 33 81 5z"/>
<path d="M2409 1471 c-47 -47 -31 -125 30 -151 61 -25 131 20 131 84 0 87 -99
128 -161 67z m106 -31 c34 -37 -5 -96 -56 -83 -9 3 -22 15 -29 28 -11 20 -10
28 4 50 20 30 56 33 81 5z"/>
<path d="M2230 1289 c-76 -30 -80 -138 -6 -173 41 -19 81 -10 111 26 33 39 32
80 -2 117 -32 35 -67 45 -103 30z m79 -71 c14 -24 14 -28 -3 -47 -34 -37 -96
-18 -96 29 0 52 73 66 99 18z"/>
<path d="M1789 1143 c-35 -19 -64 -43 -84 -71 -27 -40 -30 -51 -30 -122 0 -71
3 -82 30 -122 38 -55 119 -98 184 -98 79 1 159 51 199 125 22 40 22 150 0 190
-61 114 -186 154 -299 98z m186 -46 c112 -63 112 -230 0 -295 -80 -46 -198
-13 -240 68 -19 37 -19 123 -1 158 45 87 154 118 241 69z"/>
<path d="M1830 1073 c-69 -36 -99 -118 -65 -183 62 -120 237 -94 260 40 18
106 -99 193 -195 143z m119 -47 c8 -6 20 -26 28 -43 11 -28 11 -38 -1 -67 -18
-43 -66 -70 -106 -61 -38 8 -80 58 -80 94 0 32 33 78 64 91 24 10 75 3 95 -14z"/>
<path d="M683 1700 c-185 -37 -290 -242 -209 -412 82 -174 307 -223 448 -98
132 116 140 306 18 431 -61 62 -169 96 -257 79z m126 -46 c168 -50 235 -256
128 -396 -109 -143 -335 -127 -420 31 -58 105 -42 217 42 301 73 73 152 93
250 64z"/>
<path d="M650 1614 c-115 -50 -165 -193 -107 -305 45 -86 160 -136 250 -109
147 43 209 208 126 333 -55 84 -178 121 -269 81z m190 -64 c57 -41 84 -131 59
-197 -14 -38 -57 -83 -96 -99 -126 -54 -268 65 -233 196 32 120 170 172 270
100z"/>
<path d="M673 1534 c-88 -44 -97 -170 -17 -233 87 -69 217 -1 217 114 0 102
-107 165 -200 119z m135 -59 c54 -63 11 -155 -73 -155 -36 0 -48 5 -69 31 -43
50 -30 114 29 148 30 17 87 5 113 -24z"/>
<path d="M1230 1508 c-58 -39 -75 -99 -46 -157 36 -68 121 -82 180 -30 44 39
54 83 30 134 -33 69 -105 93 -164 53z m115 -43 c47 -46 25 -119 -42 -139 -32
-10 -79 18 -92 54 -28 82 73 147 134 85z"/>
<path d="M1257 1442 c-46 -51 19 -115 67 -66 21 21 20 40 -4 64 -25 25 -42 25
-63 2z"/>
<path d="M1674 1520 c-36 -14 -74 -68 -74 -106 0 -134 164 -172 226 -52 46 88
-58 196 -152 158z m101 -55 c62 -61 -7 -167 -87 -134 -16 6 -36 25 -44 40 -41
81 67 159 131 94z"/>
<path d="M1686 1444 c-19 -18 -21 -55 -4 -72 17 -17 54 -15 72 4 21 21 20 40
-4 64 -24 24 -43 25 -64 4z"/>
<path d="M1045 1168 c-31 -18 -44 -40 -45 -75 0 -35 -21 -53 -64 -53 -46 0
-66 -35 -66 -115 0 -86 11 -103 76 -120 43 -11 49 -15 52 -41 7 -68 40 -94
120 -94 79 0 100 18 116 101 5 22 13 28 48 33 68 11 78 26 78 121 0 93 -13
115 -68 115 -38 0 -62 23 -62 60 0 51 -29 73 -101 76 -37 2 -72 -1 -84 -8z
m151 -98 l1 -65 54 -1 c30 -1 60 -2 67 -3 8 -1 12 -23 12 -76 0 -53 -4 -75
-12 -76 -7 0 -37 -1 -67 -2 l-54 -2 -1 -65 -1 -65 -75 0 -75 0 -3 68 -3 68
-59 -2 c-33 -1 -63 0 -66 4 -9 8 -8 136 1 145 4 4 33 5 66 4 l59 -4 0 64 c0
36 3 68 7 72 4 4 39 5 78 4 l70 -3 1 -65z"/>
<path d="M1070 1035 l0 -65 -65 0 -65 0 0 -45 0 -45 65 0 65 0 0 -65 0 -65 45
0 44 0 3 63 3 62 65 5 65 5 0 40 0 40 -65 5 -65 5 -3 63 -3 62 -44 0 -45 0 0
-65z m77 -145 l-32 -36 -13 23 c-7 12 -21 27 -32 33 -20 11 -20 12 10 41 16
17 30 35 30 40 0 5 15 -8 34 -28 l34 -38 -31 -35z"/>
<path d="M1456 1851 c-7 -11 39 -20 65 -14 10 3 19 9 19 14 0 12 -77 12 -84 0z"/>
<path d="M1401 1804 c-22 -28 -29 -108 -11 -119 6 -3 10 0 10 7 0 8 14 35 30
61 17 26 30 50 30 52 0 2 -9 9 -19 15 -16 8 -23 5 -40 -16z"/>
<path d="M1548 1814 c-15 -16 -15 -19 12 -53 16 -20 32 -49 36 -65 6 -25 8
-26 17 -11 14 25 2 102 -18 125 -22 24 -26 25 -47 4z"/>
<path d="M1463 1733 c-14 -16 -33 -39 -41 -52 -15 -22 -15 -25 7 -42 29 -24
107 -25 139 -3 19 13 20 19 11 37 -14 27 -70 87 -81 87 -5 0 -21 -12 -35 -27z
m56 -46 c14 -17 4 -27 -26 -27 -25 0 -26 1 -17 24 7 20 28 21 43 3z"/>
</g>
</svg>
